<svg width="52" height="54" viewBox="0 0 52 54" fill="none" xmlns="http://www.w3.org/2000/svg">
    <path d="M47.1929 21.748C47.1929 9.75586 37.6859 0 25.9998 0C14.3141 0 4.80709 9.75586 4.80709 21.748C4.80709 33.7397 14.3141 43.4956 25.9998 43.4956C37.6859 43.4956 47.1929 33.7397 47.1929 21.748ZM22.2221 31.0251L14.9865 23.5999L17.1797 21.3496L22.2221 26.5242L34.8203 13.596L37.0135 15.8463L22.2221 31.0251Z" fill="#0053BD"/>
    <path d="M6.41534 36.479L0 46.0812L9.48491 44.266L11.2537 54L17.2612 45.0084C12.8997 43.2768 9.14367 40.2891 6.41534 36.479Z" fill="#0053BD"/>
    <path d="M45.5847 36.479C42.8563 40.2891 39.1003 43.2768 34.7388 45.0084L40.7463 54L42.5151 44.266L52 46.0812L45.5847 36.479Z" fill="#0053BD"/>
</svg>
