<svg width="76" height="46" viewBox="0 0 76 46" fill="none" xmlns="http://www.w3.org/2000/svg">
    <path fill-rule="evenodd" clip-rule="evenodd" d="M54.1797 0.457818C60.7689 2.02163 63.2895 5.9623 66.4496 11.3861H54.1797V0.457818ZM15.6718 11.8416C16.9619 11.8416 17.8983 12.4785 17.8983 13.967C17.8983 15.2224 16.9051 16.2407 15.6781 16.2442H2.22656C0.996735 16.2442 0 17.2642 0 18.5215C0 19.7793 0.996735 20.7987 2.22656 20.7987H22.2656C23.507 20.7987 24.5009 21.8175 24.5009 23.0759C24.5009 24.3337 23.5042 25.3531 22.2743 25.3531H2.22656C0.996735 25.3531 0 26.3725 0 27.6304C0 28.8882 0.996735 29.9076 2.22656 29.9076H7.125V36.7393C7.125 37.9971 8.12173 39.0165 9.35156 39.0165H13.8273C14.6252 43.036 18.0978 46 22.1914 46C26.285 46 29.7577 43.036 30.5555 39.0165H53.1632C53.9611 43.036 57.4337 46 61.5273 46C65.621 46 69.0936 43.036 69.8914 39.0165H73.7734C75.0033 39.0165 76 37.9971 76 36.7393V23.0759C76 16.3943 69.1093 15.9507 69.1029 15.9406H51.9531C50.7233 15.9406 49.7266 14.9212 49.7266 13.6634V0H9.35156C8.12173 0 7.125 1.01942 7.125 2.27723V7.28713H4.45312C3.2233 7.28713 2.22656 8.30654 2.22656 9.56436C2.22656 10.8222 3.2233 11.8416 4.45312 11.8416H15.6718ZM64.4138 34.3185C66.0077 35.9488 66.0077 38.5931 64.4138 40.2233C61.8497 42.8457 57.4453 40.98 57.4453 37.2706C57.4453 33.5618 61.8497 31.6962 64.4138 34.3185ZM25.0778 34.3185C26.6718 35.9488 26.6718 38.5931 25.0778 40.2233C22.5138 42.8457 18.1094 40.98 18.1094 37.2706C18.1094 33.5618 22.5138 31.6962 25.0778 34.3185Z" fill="#0053BD"/>
</svg>
