<svg width="46" height="54" viewBox="0 0 46 54" fill="none" xmlns="http://www.w3.org/2000/svg">
    <path d="M45.9423 13.8996C45.877 12.4789 45.877 11.1229 45.877 9.76682C45.877 8.66906 45.0273 7.8296 43.9162 7.8296C35.7462 7.8296 29.537 5.50493 24.3736 0.532735C23.5893 -0.177578 22.4128 -0.177578 21.6285 0.532735C16.4651 5.50493 10.2559 7.8296 2.08595 7.8296C0.974837 7.8296 0.125161 8.66906 0.125161 9.76682C0.125161 11.1229 0.125161 12.4789 0.0598012 13.8996C-0.201638 27.4601 -0.593797 46.0574 22.3475 53.8708L23.0011 54L23.6547 53.8708C46.5305 46.0574 46.2038 27.5247 45.9423 13.8996ZM21.4324 32.6906C21.0403 33.0135 20.5827 33.2072 20.0599 33.2072H19.9945C19.4716 33.2072 18.9488 32.9489 18.622 32.5614L12.5435 25.9103L15.4847 23.3274L20.2559 28.5578L30.8442 18.6135L33.524 21.4547L21.4324 32.6906Z" fill="#0053BD"/>
</svg>
