<svg width="67" height="58" viewBox="0 0 67 58" fill="none" xmlns="http://www.w3.org/2000/svg">
    <path d="M66.9349 54.1658C66.7671 50.1869 66.5274 46.208 66.4076 42.2292C65.9042 28.8544 66.2158 15.4797 66.4076 2.10499C66.4315 1.05035 66.4555 1.02638 65.4248 0.738751C63.6991 0.187462 61.3261 0.0676172 60.2955 1.91323C56.8439 8.26503 53.8718 14.7846 50.9475 21.4001C49.03 14.7846 46.9687 8.24106 44.404 1.81736C43.8287 -0.0761972 37.5968 -0.867176 37.0215 1.31401C36.5421 9.10395 36.0867 16.8939 35.5354 24.6599C35.3916 25.331 35.5354 28.0155 34.8883 28.1114C33.0666 28.5428 32.4674 25.4988 31.9161 24.2524C29.663 16.7501 29.4713 8.69648 27.6976 1.14622C27.1463 0.690812 26.5231 0.403184 25.828 0.403184C23.6947 0.403184 21.5854 0.379215 19.4522 0.427153C13.6757 0.642874 7.89912 0.906534 2.09861 1.09829C1.61923 1.12226 0.756344 1.88926 0.732375 2.34468C-0.442108 20.4173 0.0852107 38.5619 0.34887 56.6585C3.10531 56.6585 5.81381 56.9462 8.54628 56.5387C15.1857 55.2923 18.6852 45.9683 19.2844 39.9761C19.5481 34.5591 20.0275 24.588 13.6038 22.6225C11.0391 22.0952 8.57025 22.9581 6.00557 23.2457C5.93366 17.9725 6.00557 12.6753 5.9816 7.40215C5.95763 7.16246 6.0535 7.06658 6.31716 7.04261C11.5664 6.73101 16.8396 6.34751 22.0888 5.94003C22.4963 5.91606 22.6401 6.01194 22.712 6.44338C23.0955 9.07998 23.479 11.7405 23.9104 14.3771C24.6775 19.147 25.7081 23.8929 26.8347 28.5908C27.5537 32.3539 30.9573 33.5284 34.3849 33.7921C33.3782 41.0068 31.988 50.115 24.3179 53.1591C23.6947 53.5186 23.5749 53.9261 23.7187 54.6212C25.4684 59.8225 30.6937 57.114 33.2104 54.0938C41.3359 43.6433 41.0483 24.1805 42.3666 11.2372C44.2362 14.8565 45.0991 19.0511 46.4413 22.9101C47.1604 25.2591 47.8555 27.632 48.5746 29.981C48.6225 30.1488 48.7903 30.3645 48.9341 30.4124C50.3243 30.9398 52.2179 30.7001 53.0328 29.3818C53.9916 26.8171 54.9024 24.2284 55.9091 21.6877C57.1076 18.7155 58.3779 15.9351 59.6723 12.9869C58.8573 27.0088 58.9772 41.1026 59.1449 55.1725C59.1449 55.6998 59.3607 55.8915 59.8161 56.0593C61.8295 56.8024 63.8429 56.7065 65.8083 56.0114C67.2705 55.4841 67.0068 55.8436 66.9349 54.1658ZM6.07747 40.5753C6.07747 36.8122 6.07747 33.0251 6.07747 29.2619C6.26923 27.8238 8.45041 27.9916 9.52902 28.0395C10.2001 28.2552 11.2548 28.0395 11.5184 28.8065C13.8195 34.4153 13.5558 42.8763 11.7342 48.6049C10.7275 51.0498 8.88185 52.2962 6.24526 52.416C5.83778 52.44 5.88572 52.2003 5.88572 51.9606C5.90969 48.1735 5.9816 44.3864 5.95763 40.5993C6.00557 40.5753 6.02953 40.5753 6.07747 40.5753Z" fill="#0053BD"/>
    <path d="M47.2085 41.6779C47.2085 46.9511 54.8307 47.023 55.0224 41.8457C55.0943 36.8122 47.3044 36.6924 47.2085 41.6779Z" fill="#0053BD"/>
</svg>
