<svg width="68" height="43" viewBox="0 0 68 43" fill="none" xmlns="http://www.w3.org/2000/svg">
    <rect x="19" y="10" width="32" height="22" fill="white"/>
    <path d="M66.599 6.72847C65.8154 4.09743 63.5185 2.02341 60.6058 1.31496C55.2845 0 33.9992 0 33.9992 0C33.9992 0 12.7147 0 7.39352 1.2651C4.5368 1.97281 2.18394 4.09781 1.40034 6.72847C0 11.534 0 21.5 0 21.5C0 21.5 0 31.5162 1.40034 36.2715C2.18477 38.9022 4.48077 40.9762 7.39393 41.6847C12.7708 43 34.0001 43 34.0001 43C34.0001 43 55.2845 43 60.6058 41.7349C63.5189 41.0268 65.8154 38.9528 66.5998 36.3221C67.9997 31.5162 67.9997 21.5506 67.9997 21.5506C67.9997 21.5506 68.0557 11.534 66.599 6.72847ZM27.2225 30.707V12.293L44.9223 21.5L27.2225 30.707Z" fill="#FF0000"/>
</svg>
