<svg xmlns="http://www.w3.org/2000/svg" display="none">

    <symbol id="instagram" viewBox="0 0 33 33">
        <path d="M24.0672 0H8.9328C4.00717 0 0 4.00717 0 8.9328V24.0675C0 28.9928 4.00717 33 8.9328 33H24.0675C28.9928 33 33 28.9928 33 24.0675V8.9328C33 4.00717 28.9928 0 24.0672 0ZM16.5 25.5232C11.5245 25.5232 7.47681 21.4755 7.47681 16.5C7.47681 11.5245 11.5245 7.47681 16.5 7.47681C21.4755 7.47681 25.5232 11.5245 25.5232 16.5C25.5232 21.4755 21.4755 25.5232 16.5 25.5232ZM25.739 9.60477C24.2686 9.60477 23.0727 8.40887 23.0727 6.93853C23.0727 5.46819 24.2686 4.27203 25.739 4.27203C27.2093 4.27203 28.4054 5.46819 28.4054 6.93853C28.4054 8.40887 27.2093 9.60477 25.739 9.60477Z"/>
        <path d="M16.5 9.41142C12.5915 9.41142 9.41142 12.5913 9.41142 16.5C9.41142 20.4085 12.5915 23.5886 16.5 23.5886C20.4087 23.5886 23.5886 20.4085 23.5886 16.5C23.5886 12.5913 20.4087 9.41142 16.5 9.41142Z"/>
        <path d="M25.739 6.20689C25.3356 6.20689 25.0073 6.53519 25.0073 6.93853C25.0073 7.34187 25.3356 7.67017 25.739 7.67017C26.1425 7.67017 26.4708 7.34212 26.4708 6.93853C26.4708 6.53494 26.1425 6.20689 25.739 6.20689Z"/>
    </symbol>

    <symbol id="arrow-left" viewBox="0 0 10 11">
        <path d="M0.485505 6.09285C-0.161834 5.70444 -0.161835 4.76626 0.485504 4.37786L7.54185 0.144052C8.20838 -0.255863 9.05635 0.224249 9.05635 1.00154V9.46916C9.05635 10.2465 8.20838 10.7266 7.54185 10.3267L0.485505 6.09285Z"/>
    </symbol>

    <symbol id="arrow-right" viewBox="0 0 10 11">
        <path d="M9.5145 6.09285C10.1618 5.70444 10.1618 4.76626 9.5145 4.37786L2.45815 0.144052C1.79162 -0.255863 0.943651 0.224249 0.943651 1.00154V9.46916C0.943651 10.2465 1.79162 10.7266 2.45815 10.3267L9.5145 6.09285Z"/>
    </symbol>

    <symbol id="link" viewBox="0 0 19 19">
        <path d="M14.6792 10.5703C14.4837 10.5703 14.2962 10.6478 14.1581 10.7857C14.0199 10.9237 13.9423 11.1107 13.9423 11.3058V16.3225C13.9423 16.6424 13.8149 16.9493 13.5883 17.1755C13.3616 17.4017 13.0542 17.5288 12.7337 17.5288H2.68234C2.36182 17.5288 2.05442 17.4017 1.82778 17.1755C1.60114 16.9493 1.47381 16.6424 1.47381 16.3225V6.29655C1.4738 5.97592 1.60089 5.66834 1.82733 5.44094C2.05376 5.21354 2.36114 5.08479 2.68234 5.08285H7.70798C7.90342 5.08285 8.09089 5.00536 8.22909 4.86741C8.36728 4.72947 8.44489 4.54236 8.44489 4.34727C8.44489 4.15218 8.36728 3.9651 8.22909 3.82715C8.09089 3.6892 7.90342 3.61169 7.70798 3.61169H2.68234C1.97027 3.61364 1.28803 3.89738 0.785209 4.40067C0.282385 4.90397 -2.67245e-06 5.58575 0 6.29655V16.3225C0 17.0326 0.282624 17.7136 0.785659 18.2158C1.28869 18.7179 1.97094 19 2.68234 19H12.7337C13.4451 19 14.1274 18.7179 14.6304 18.2158C15.1334 17.7136 15.4161 17.0326 15.4161 16.3225V11.3058C15.4161 11.2092 15.397 11.1136 15.3599 11.0244C15.3229 10.9351 15.2686 10.854 15.2002 10.7857C15.1317 10.7174 15.0506 10.6632 14.9612 10.6263C14.8718 10.5893 14.7759 10.5703 14.6792 10.5703Z"/>
        <path d="M18.9753 0.456055C18.92 0.321724 18.8262 0.206756 18.7055 0.125597C18.5849 0.0444382 18.4428 0.000724899 18.2973 0H11.3262C11.1308 0 10.9434 0.0775089 10.8052 0.215457C10.667 0.353404 10.5893 0.540491 10.5893 0.735578C10.5893 0.930666 10.667 1.11777 10.8052 1.25572C10.9434 1.39367 11.1308 1.47116 11.3262 1.47116H16.4846L7.14806 10.7909C7.04665 10.8942 6.97795 11.025 6.95061 11.167C6.92326 11.309 6.93841 11.4559 6.99423 11.5893C7.05006 11.7228 7.14406 11.8368 7.26446 11.9172C7.38485 11.9976 7.52637 12.0408 7.67123 12.0414C7.76821 12.042 7.86435 12.0234 7.95413 11.9868C8.04392 11.9502 8.12555 11.8963 8.1944 11.8281L17.5236 2.51569V7.66474C17.5236 7.85982 17.6012 8.04691 17.7394 8.18486C17.8776 8.32281 18.0651 8.40031 18.2605 8.40031C18.456 8.40031 18.6434 8.32281 18.7815 8.18486C18.9197 8.04691 18.9974 7.85982 18.9974 7.66474V0.706171C19.0045 0.622157 18.997 0.53754 18.9753 0.456055Z"/>
    </symbol>

    <symbol id="search" viewBox="0 0 17 17">
        <path d="M16.5584 14.3846L12.5844 10.4615C14.2035 7.84615 13.9091 4.21368 11.7013 2.03419C10.3766 0.726496 8.61039 0 6.84416 0C5.07792 0 3.1645 0.726496 1.98701 2.03419C-0.662338 4.64957 -0.662338 9.00855 1.98701 11.6239C3.31169 12.9316 5.07792 13.6581 6.84416 13.6581C8.16883 13.6581 9.34632 13.3675 10.5238 12.641L14.4978 16.5641C14.7922 16.8547 15.2338 17 15.5281 17C15.8225 17 16.2641 16.8547 16.5584 16.5641C17.1472 15.8376 17.1472 14.9658 16.5584 14.3846ZM4.04762 9.44444C3.31169 8.71795 2.87013 7.84615 2.87013 6.82906C2.87013 5.81197 3.31169 4.79487 4.04762 4.06838C4.78355 3.34188 5.66667 2.90598 6.84416 2.90598C8.02164 2.90598 8.75758 3.34188 9.49351 4.06838C10.2294 4.79487 10.671 5.81197 10.671 6.82906C10.671 7.84615 10.2294 8.71795 9.49351 9.44444C8.02164 11.0427 5.51948 11.0427 4.04762 9.44444Z"/>
    </symbol>

    <symbol id="filter" viewBox="0 0 256 256">
        <g transform="translate(128 128) scale(0.72 0.72)">
            <g style="stroke: none; stroke-width: 0; stroke-dasharray: none; stroke-linecap: butt; stroke-linejoin: miter; stroke-miterlimit: 10; fill: none; fill-rule: nonzero; opacity: 1;"
               transform="translate(-175.05 -175.05000000000004) scale(3.89 3.89)">
                <path d="M 15.205 90 c -1.104 0 -2 -0.896 -2 -2 V 55.115 c 0 -1.104 0.896 -2 2 -2 s 2 0.896 2 2 V 88 C 17.205 89.104 16.31 90 15.205 90 z"
                      style="stroke: none; stroke-width: 1; stroke-dasharray: none; stroke-linecap: butt; stroke-linejoin: miter; stroke-miterlimit: 10; fill: rgb(0,0,0); fill-rule: nonzero; opacity: 1;"
                      transform=" matrix(1 0 0 1 0 0) " stroke-linecap="round"/>
                <path d="M 74.795 59.357 c -1.104 0 -2 -0.896 -2 -2 V 2 c 0 -1.104 0.896 -2 2 -2 s 2 0.896 2 2 v 55.357 C 76.795 58.462 75.899 59.357 74.795 59.357 z"
                      style="stroke: none; stroke-width: 1; stroke-dasharray: none; stroke-linecap: butt; stroke-linejoin: miter; stroke-miterlimit: 10; fill: rgb(0,0,0); fill-rule: nonzero; opacity: 1;"
                      transform=" matrix(1 0 0 1 0 0) " stroke-linecap="round"/>
                <path d="M 45 90 c -1.104 0 -2 -0.896 -2 -2 V 27.922 c 0 -1.104 0.896 -2 2 -2 s 2 0.896 2 2 V 88 C 47 89.104 46.104 90 45 90 z"
                      style="stroke: none; stroke-width: 1; stroke-dasharray: none; stroke-linecap: butt; stroke-linejoin: miter; stroke-miterlimit: 10; fill: rgb(0,0,0); fill-rule: nonzero; opacity: 1;"
                      transform=" matrix(1 0 0 1 0 0) " stroke-linecap="round"/>
                <path d="M 45 29.922 c -5.464 0 -9.91 -4.445 -9.91 -9.91 s 4.445 -9.91 9.91 -9.91 c 5.465 0 9.91 4.445 9.91 9.91 S 50.465 29.922 45 29.922 z M 45 14.103 c -3.259 0 -5.91 2.651 -5.91 5.91 s 2.651 5.91 5.91 5.91 s 5.91 -2.651 5.91 -5.91 S 48.259 14.103 45 14.103 z"
                      style="stroke: none; stroke-width: 1; stroke-dasharray: none; stroke-linecap: butt; stroke-linejoin: miter; stroke-miterlimit: 10; fill: rgb(0,0,0); fill-rule: nonzero; opacity: 1;"
                      transform=" matrix(1 0 0 1 0 0) " stroke-linecap="round"/>
                <path d="M 15.205 57.115 c -5.464 0 -9.91 -4.445 -9.91 -9.91 c 0 -5.464 4.445 -9.91 9.91 -9.91 s 9.91 4.445 9.91 9.91 C 25.115 52.67 20.669 57.115 15.205 57.115 z M 15.205 41.295 c -3.259 0 -5.91 2.651 -5.91 5.91 s 2.651 5.91 5.91 5.91 s 5.91 -2.651 5.91 -5.91 S 18.464 41.295 15.205 41.295 z"
                      style="stroke: none; stroke-width: 1; stroke-dasharray: none; stroke-linecap: butt; stroke-linejoin: miter; stroke-miterlimit: 10; fill: rgb(0,0,0); fill-rule: nonzero; opacity: 1;"
                      transform=" matrix(1 0 0 1 0 0) " stroke-linecap="round"/>
                <path d="M 74.795 75.177 c -5.464 0 -9.909 -4.445 -9.909 -9.91 c 0 -5.464 4.445 -9.909 9.909 -9.909 c 5.465 0 9.91 4.445 9.91 9.909 C 84.705 70.731 80.26 75.177 74.795 75.177 z M 74.795 59.357 c -3.259 0 -5.909 2.65 -5.909 5.909 s 2.65 5.91 5.909 5.91 s 5.91 -2.651 5.91 -5.91 S 78.054 59.357 74.795 59.357 z"
                      style="stroke: none; stroke-width: 1; stroke-dasharray: none; stroke-linecap: butt; stroke-linejoin: miter; stroke-miterlimit: 10; fill: rgb(0,0,0); fill-rule: nonzero; opacity: 1;"
                      transform=" matrix(1 0 0 1 0 0) " stroke-linecap="round"/>
                <path d="M 15.205 41.295 c -1.104 0 -2 -0.896 -2 -2 V 2 c 0 -1.104 0.896 -2 2 -2 s 2 0.896 2 2 v 37.295 C 17.205 40.4 16.31 41.295 15.205 41.295 z"
                      style="stroke: none; stroke-width: 1; stroke-dasharray: none; stroke-linecap: butt; stroke-linejoin: miter; stroke-miterlimit: 10; fill: rgb(0,0,0); fill-rule: nonzero; opacity: 1;"
                      transform=" matrix(1 0 0 1 0 0) " stroke-linecap="round"/>
                <path d="M 45 14.103 c -1.104 0 -2 -0.896 -2 -2 V 2 c 0 -1.104 0.896 -2 2 -2 s 2 0.896 2 2 v 10.103 C 47 13.207 46.104 14.103 45 14.103 z"
                      style="stroke: none; stroke-width: 1; stroke-dasharray: none; stroke-linecap: butt; stroke-linejoin: miter; stroke-miterlimit: 10; fill: rgb(0,0,0); fill-rule: nonzero; opacity: 1;"
                      transform=" matrix(1 0 0 1 0 0) " stroke-linecap="round"/>
                <path d="M 74.795 90 c -1.104 0 -2 -0.896 -2 -2 V 73.177 c 0 -1.104 0.896 -2 2 -2 s 2 0.896 2 2 V 88 C 76.795 89.104 75.899 90 74.795 90 z"
                      style="stroke: none; stroke-width: 1; stroke-dasharray: none; stroke-linecap: butt; stroke-linejoin: miter; stroke-miterlimit: 10; fill: rgb(0,0,0); fill-rule: nonzero; opacity: 1;"
                      transform=" matrix(1 0 0 1 0 0) " stroke-linecap="round"/>
            </g>
        </g>
    </symbol>

    <symbol id="download" viewBox="0 0 29 27">
        <path d="M27.6292 14.9104C26.8316 14.9104 26.205 15.5437 26.205 16.3497V22.1066C26.205 23.258 25.2935 24.1215 24.2111 24.1215H4.84223C3.70288 24.1215 2.84837 23.2004 2.84837 22.1066V16.3497C2.84837 15.5437 2.22173 14.9104 1.42418 14.9104C0.626641 14.9104 0 15.5437 0 16.3497V22.1066C0 24.8124 2.16476 27 4.84223 27H24.1542C26.8316 27 28.9964 24.8124 28.9964 22.1066V16.3497C29.0534 15.5437 28.4267 14.9104 27.6292 14.9104Z"/>
        <path d="M13.5013 18.8252C13.5582 18.8827 13.6152 18.9403 13.7291 18.9979C13.7861 18.9979 13.7861 19.0554 13.8431 19.0554C13.9 19.0554 13.957 19.113 13.957 19.113C14.014 19.113 14.0709 19.1706 14.0709 19.1706C14.1279 19.1706 14.1279 19.1706 14.1849 19.2281C14.2988 19.2281 14.3558 19.2281 14.4697 19.2281C14.5837 19.2281 14.6406 19.2281 14.7546 19.2281C14.8115 19.2281 14.8115 19.2281 14.8685 19.1706C14.9255 19.1706 14.9824 19.1706 14.9824 19.113C15.0394 19.113 15.0964 19.0554 15.1533 19.0554C15.2103 19.0554 15.2103 18.9979 15.2673 18.9979C15.3242 18.9403 15.4382 18.8827 15.4951 18.8252L22.3312 11.9168C22.9009 11.3412 22.9009 10.42 22.3312 9.90192C21.7615 9.3838 20.8501 9.32623 20.3374 9.90192L15.9509 14.3348V1.43923C15.9509 0.633262 15.3242 0 14.5267 0C13.7291 0 13.1025 0.633262 13.1025 1.43923V14.3348L8.71601 9.90192C8.14634 9.32623 7.23486 9.32623 6.72215 9.90192C6.20945 10.4776 6.15248 11.3987 6.72215 11.9168L13.5013 18.8252Z"/>
    </symbol>

</svg>